# xmcd
#
# Track frame offsets:
#	150
#	16066
#	32862
#	51037
#	71812
#	93447
#	113403
#	133618
#	152034
#	171330
#	190906
#	204602
#	221398
#	242014
#	259409
#	278805
#	295401
#
# Disc length: 4009 seconds
#
# Revision: 0
# Processed by: cddbd v1.5.1PL0 Copyright (c) Steve Scherf et al.
# Submitted via: dBpowerAMP V4.0
#
DISCID=fa0fa711
DTITLE=Louise Hoffsten - Collection 1991-2002
DYEAR=2002
DGENRE=Blues
TTITLE0=Track01 Sockerkompis
TTITLE1=Track02 Deala Med Din Jävel
TTITLE2=Track03 Let The Best Man Win
TTITLE3=Track04 Hit Me With Your Lovething
TTITLE4=Track05 Dance On Your Grave
TTITLE5=Track06 Nowhere In This World
TTITLE6=Track07 Sucker
TTITLE7=Track08 Never Gonna Be Your Lady
TTITLE8=Track09 Padded Bra
TTITLE9=Track10 Sweet Poison
TTITLE10=Track11 Miracle
TTITLE11=Track12 Nice Doin´Business
TTITLE12=Track13 Explain It To My Heart
TTITLE13=Track14 Seduction Of Sweet Louise
TTITLE14=Track15 Warm And Tender Love
TTITLE15=Track16 Healing Rain
TTITLE16=Track17 The Only Thing I Got
EXTD=
EXTT0=
EXTT1=
EXTT2=
EXTT3=
EXTT4=
EXTT5=
EXTT6=
EXTT7=
EXTT8=
EXTT9=
EXTT10=
EXTT11=
EXTT12=
EXTT13=
EXTT14=
EXTT15=
EXTT16=
PLAYORDER=
